<svg height="496pt" viewBox="-64 0 496 496" width="496pt" xmlns="http://www.w3.org/2000/svg"><path d="m24 424h320v64h-320zm0 0" fill="#f0d0b4"/><path d="m320.847656 312.65625-88.847656-16.65625-48 16-48-16-88.847656 16.65625c-22.703125 4.253906-39.152344 24.078125-39.152344 47.183594v64.160156h64v64h224v-64h64v-64.160156c0-23.105469-16.449219-42.929688-39.152344-47.183594zm0 0" fill="#5cd6b3"/><path d="m72 488v-136l-24 136zm0 0" fill="#ecc19c"/><path d="m72 424v-72l-12.703125 72zm0 0" fill="#48cfad"/><path d="m320 488-24-136v136zm0 0" fill="#ecc19c"/><path d="m296 352v72h12.703125zm0 0" fill="#48cfad"/><path d="m320.847656 312.65625-7.785156-1.457031-1.0625.800781c10.433594 15.648438 16 34.039062 16 52.847656v59.152344h32v-64.160156c0-23.105469-16.449219-42.929688-39.152344-47.183594zm0 0" fill="#fcd770"/><path d="m56 312-1.015625-.808594-7.832031 1.472656c-22.703125 4.246094-39.152344 24.070313-39.152344 47.175782v64.160156h32v-59.152344c0-18.808594 5.566406-37.199218 16-52.847656zm0 0" fill="#fcd770"/><path d="m232 296-48 16-48-16v-40h96zm0 0" fill="#f0d0b4"/><path d="m136 281.664062c13.816406 9.03125 30.289062 14.335938 48 14.335938s34.183594-5.304688 48-14.335938v-25.664062h-96zm0 0" fill="#ecc19c"/><path d="m80 184v-72c0-57.441406 46.558594-104 104-104s104 46.558594 104 104v72zm0 0" fill="#5cd6b3"/><path d="m184 8c-41.535156 0-77.273438 24.40625-93.945312 59.601562l29.945312 52.398438h128l29.945312-52.398438c-16.671874-35.195312-52.410156-59.601562-93.945312-59.601562zm0 0" fill="#fcd770"/><path d="m80 120h208v64h-208zm0 0" fill="#b27946"/><path d="m112 120v88c0 39.769531 32.230469 72 72 72s72-32.230469 72-72v-88zm0 0" fill="#f0d0b4"/><path d="m112 152c-17.671875 0-32 14.328125-32 32s14.328125 32 32 32h144c17.671875 0 32-14.328125 32-32s-14.328125-32-32-32zm0 0" fill="#f0d0b4"/><path d="m184 8c-23.585938 0-45.265625 7.945312-62.703125 21.167969l22.703125 90.832031h80l22.703125-90.832031c-17.4375-13.222657-39.117187-21.167969-62.703125-21.167969zm0 0" fill="#5cd6b3"/><path d="m256 176-11.3125 11.3125c-3 3-7.070312 4.6875-11.3125 4.6875h-28.429688c-3.035156 0-5.800781-1.710938-7.152343-4.425781l-5.792969-11.574219h-16l-5.792969 11.574219c-1.351562 2.714843-4.117187 4.425781-7.152343 4.425781h-28.429688c-4.242188 0-8.3125-1.6875-11.3125-4.6875l-11.3125-11.3125v-56h144zm0 0" fill="#4fc1e9"/><path d="m217.191406 13.503906c-10.429687-3.511718-21.566406-5.503906-33.191406-5.503906s-22.761719 1.992188-33.191406 5.503906l17.191406 74.496094h32zm0 0" fill="#fcd770"/><path d="m197.792969 187.574219c1.351562 2.714843 4.117187 4.425781 7.152343 4.425781h28.429688c4.242188 0 8.3125-1.6875 11.3125-4.6875l11.3125-11.3125v-56h-48l-24.886719 56h8.886719zm0 0" fill="#3bafda"/><path d="m184 248c17.648438 0 32-14.351562 32-32h-16c0 8.824219-7.175781 16-16 16s-16-7.175781-16-16h-16c0 17.648438 14.351562 32 32 32zm0 0"/><path d="m368 359.832031c0-26.9375-19.207031-50.078125-45.679688-55.039062l-82.320312-15.433594v-24.328125c11.3125-11.101562 19.335938-25.527344 22.488281-41.6875 18.960938-3.128906 33.511719-19.511719 33.511719-39.34375v-72c0-61.761719-50.238281-112-112-112s-112 50.238281-112 112v72c0 19.832031 14.550781 36.214844 33.511719 39.34375 3.152343 16.160156 11.175781 30.585938 22.488281 41.6875v24.328125l-82.320312 15.441406c-26.472657 4.960938-45.679688 28.101563-45.679688 55.03125v72.167969h16v64h336v-64h16zm-276.425781-273.457031 14.640625 25.625h-18.214844c0-8.878906 1.3125-17.449219 3.574219-25.625zm12.425781 41.625v16.808594c-5.945312 1.214844-11.328125 3.855468-16 7.390625v-24.199219zm16 0h128v44.6875l-8.96875 8.96875c-1.496094 1.488281-3.550781 2.34375-5.65625 2.34375h-28.429688l-8-16h-25.890624l-8 16h-28.429688c-2.105469 0-4.167969-.855469-5.65625-2.34375l-8.96875-8.96875zm30.238281-16-19.894531-79.574219c4.785156-3.242187 9.902344-6.011719 15.25-8.355469l15.992188 71.929688h44.828124l15.984376-71.929688c5.34375 2.34375 10.464843 5.121094 15.25 8.355469l-19.886719 79.574219zm129.761719 0h-18.214844l14.640625-25.617188c2.269531 8.167969 3.574219 16.738282 3.574219 25.617188zm-16 16h16v24.207031c-4.671875-3.535156-10.054688-6.183593-16-7.390625zm0 78.527344v-45.046875c9.289062 3.3125 16 12.113281 16 22.527343 0 10.417969-6.710938 19.207032-16 22.519532zm4.894531-139.214844-25.535156 44.6875h-9.121094l17.082031-68.328125c7.007813 6.902344 12.945313 14.871094 17.574219 23.640625zm-61.742187-48.375-13.566406 61.0625h-19.171876l-13.558593-61.0625c7.425781-1.847656 15.152343-2.9375 23.144531-2.9375s15.71875 1.089844 23.152344 2.9375zm-90.480469 24.734375 17.089844 68.328125h-9.121094l-25.535156-44.6875c4.628906-8.769531 10.566406-16.738281 17.566406-23.640625zm-28.671875 140.328125c0-10.414062 6.710938-19.214844 16-22.527344v45.046875c-9.289062-3.304687-16-12.105469-16-22.519531zm32 24v-13.105469c4.183594 3.257813 9.238281 5.105469 14.625 5.105469h28.429688c6.113281 0 11.59375-3.390625 14.3125-8.839844l3.578124-7.160156h6.109376l3.578124 7.152344c2.71875 5.457031 8.199219 8.847656 14.3125 8.847656h28.429688c5.386719 0 10.441406-1.847656 14.625-5.105469v13.105469c0 35.289062-28.710938 64-64 64s-64-28.710938-64-64zm64 80c14.574219 0 28.214844-3.984375 40-10.824219v13.054688l-40 13.335937-40-13.335937v-13.054688c11.785156 6.839844 25.425781 10.824219 40 10.824219zm-48.558594 16.246094 40.558594 13.523437v26.230469h16v-26.230469l40.558594-13.523437 73.792968 13.84375c8.90625 14.007812 13.648438 30.117187 13.648438 46.75v51.160156h-16v-64h-16v128h-96v-24h-16v24h-96v-128h-16v64h-16v-51.160156c0-16.632813 4.742188-32.742188 13.648438-46.761719zm-119.441406 55.585937c0-16.519531 10.152344-30.984375 24.984375-37-5.871094 13.167969-8.984375 27.414063-8.984375 42.007813v51.160156h-16zm16 72.167969h32v48h-32zm304 48h-32v-48h32zm16-64h-16v-51.160156c0-14.601563-3.113281-28.847656-8.984375-42.007813 14.832031 6.023438 24.984375 20.488281 24.984375 37zm0 0"/><path d="m176 360h16v32h-16zm0 0"/><path d="m176 408h16v32h-16zm0 0"/></svg>